<svg width="27" height="32" viewBox="0 0 27 32" fill="none" xmlns="http://www.w3.org/2000/svg">
<g clip-path="url(#clip0_4_10)">
<path d="M24.6375 8.11251L18.2197 0.750006C17.8295 0.300006 17.2969 0.0437561 16.7484 0.0437561L4.66172 0.0062561C3.1957 0.0062561 2.00391 1.40626 2.00391 3.13126V28.8688C2.00391 30.5625 3.23262 32 4.68809 32H22.565C23.9941 32 25.1543 30.5938 25.1543 28.8625V9.60626C25.1543 9.02501 24.9697 8.49376 24.6375 8.11251ZM18.1934 4.20001L21.5104 8.00001H18.7682C18.4623 8.00001 18.1934 7.71876 18.1934 7.40001V4.20001ZM22.565 29.5H4.68809C4.39277 29.5 4.11328 29.1938 4.11328 28.8625V3.13126C4.11328 2.80001 4.37168 2.50626 4.66172 2.50626L16.084 2.54376V7.40001C16.084 9.10626 17.2863 10.5 18.7682 10.5H23.0449V28.8625C23.0449 29.175 22.8656 29.5 22.565 29.5Z" fill="#FFE3C2"/>
<path d="M6.5918 16.6875C6.5918 17.375 7.06641 17.9375 7.64648 17.9375H16.875C17.4551 17.9375 17.9297 17.375 17.9297 16.6875C17.9297 16 17.4551 15.4375 16.875 15.4375H7.64648C7.06641 15.4375 6.5918 16 6.5918 16.6875Z" fill="#FFE3C2"/>
<path d="M7.59375 12.9375H13.7109C14.291 12.9375 14.7656 12.375 14.7656 11.6875C14.7656 11 14.291 10.4375 13.7109 10.4375H7.59375C7.01367 10.4375 6.53906 11 6.53906 11.6875C6.53906 12.375 7.01367 12.9375 7.59375 12.9375Z" fill="#FFE3C2"/>
<path d="M19.5117 20.4375H7.64648C7.06641 20.4375 6.5918 21 6.5918 21.6875C6.5918 22.375 7.06641 22.9375 7.64648 22.9375H19.5117C20.0918 22.9375 20.5664 22.375 20.5664 21.6875C20.5664 21 20.0918 20.4375 19.5117 20.4375Z" fill="#FFE3C2"/>
</g>
<defs>
<clipPath id="clip0_4_10">
<rect width="27" height="32" fill="white"/>
</clipPath>
</defs>
</svg>
