<svg width="21" height="20" viewBox="0 0 21 20" fill="none" xmlns="http://www.w3.org/2000/svg">
<path d="M10.5 1.71875C8.84384 1.71787 7.22188 2.16763 5.82506 3.01509C4.42823 3.86256 3.3147 5.07244 2.61556 6.50231C1.91642 7.93219 1.66076 9.52253 1.87868 11.0861C2.0966 12.6497 2.77903 14.1215 3.84564 15.3281C3.93095 15.4281 4.01955 15.5219 4.12127 15.6406C4.15011 15.6674 4.17747 15.6956 4.2033 15.725C4.25252 15.775 4.30502 15.8219 4.35423 15.8688L4.4133 15.925L4.49533 16C4.60033 16.0969 4.70533 16.1875 4.80705 16.2656C4.90877 16.3438 5.04658 16.4625 5.16142 16.5438C5.27627 16.625 5.37142 16.6969 5.48955 16.7688L5.58142 16.8281C5.65033 16.875 5.72252 16.9219 5.78158 16.9563L5.98173 17.075H6.00142C6.24752 17.2156 6.48377 17.3375 6.7233 17.45H6.75939C6.86439 17.5 6.97267 17.5438 7.08752 17.5844C7.49383 17.75 7.91288 17.8858 8.34095 17.9906C8.46892 18.0219 8.59689 18.05 8.72814 18.075C8.85939 18.1 8.97752 18.125 9.09236 18.1406L9.24658 18.1625C9.33845 18.1781 9.43689 18.1875 9.52877 18.1969L9.69939 18.2156C9.79783 18.2156 9.90283 18.2156 10.0078 18.2344H10.0931C10.231 18.2344 10.3688 18.2344 10.5066 18.2344C10.6444 18.2344 10.7822 18.2344 10.92 18.2344H11.0053C11.1103 18.2344 11.2153 18.2344 11.3335 18.2125L11.4811 18.1969C11.5828 18.1969 11.6813 18.1781 11.7436 18.1656L11.911 18.1406C12.0422 18.1406 12.1669 18.1 12.2916 18.075L12.6886 17.9906C13.1106 17.885 13.5241 17.7502 13.9256 17.5875C14.0339 17.5438 14.1389 17.5 14.2538 17.45L14.0372 17.0281L14.2899 17.4344C14.5294 17.3219 14.7656 17.2 15.0117 17.0594L15.0413 17.0406L15.2119 16.9375C15.2832 16.8983 15.3522 16.8556 15.4186 16.8094L15.5105 16.75C15.622 16.6781 15.7336 16.5969 15.8386 16.525C15.9436 16.4531 16.0847 16.3375 16.193 16.2469C16.3013 16.1563 16.4128 16.0688 16.4981 15.9875L16.5966 15.8969L16.531 15.8344C16.6408 15.8176 16.7414 15.7658 16.8164 15.6875L16.9017 15.6C16.9903 15.5094 17.0789 15.4156 17.1642 15.3156C18.2273 14.1081 18.9064 12.6367 19.1218 11.0743C19.3371 9.51184 19.0798 7.92334 18.3799 6.49541C17.68 5.0675 16.5668 3.8595 15.1709 3.01335C13.7751 2.16721 12.1546 1.71808 10.5 1.71875ZM16.4063 14.725V14.7406C16.3275 14.8281 16.252 14.9125 16.1831 14.9813L16.0749 15.0906C16.0114 15.1583 15.9693 15.2418 15.9535 15.3313L15.8878 15.2688L15.8189 15.3313C15.7336 15.4094 15.6483 15.4844 15.5499 15.5625C15.4514 15.6406 15.3431 15.7281 15.2217 15.8125C15.1003 15.8969 15.038 15.9469 14.9297 16.0219L14.8608 16.0625C14.8083 16.1 14.7525 16.1344 14.677 16.1781L14.5228 16.2719H14.5031C14.2833 16.4 14.0733 16.5125 13.883 16.5844C13.8603 16.5921 13.8384 16.6015 13.8174 16.6125C13.7288 16.6531 13.6435 16.6906 13.545 16.7281C13.1891 16.8725 12.8228 16.9926 12.4491 17.0875L12.0816 17.1875C11.9733 17.2094 11.8683 17.2313 11.7535 17.2469C11.7141 17.2469 11.6747 17.2625 11.6025 17.2688C11.5303 17.275 11.4581 17.2875 11.3761 17.2969H11.235C11.1464 17.2969 11.0578 17.3125 10.966 17.3156H10.861C10.6195 17.3313 10.3772 17.3313 10.1358 17.3156H10.0472C9.95533 17.3156 9.86673 17.3156 9.79127 17.2969H9.63048L9.38111 17.2656L9.2433 17.2469C9.13173 17.2469 9.02673 17.2094 8.91517 17.1875C8.80361 17.1656 8.67564 17.1375 8.56736 17.1125C8.18752 17.0185 7.81569 16.8973 7.45502 16.75C7.36642 16.7156 7.27783 16.6781 7.19908 16.6406L7.14986 16.6188C6.92467 16.518 6.70558 16.4053 6.49361 16.2813H6.47392L6.30002 16.1781C6.24424 16.1438 6.18845 16.1094 6.13595 16.0719L6.09986 16.0531C6.08463 16.038 6.06692 16.0253 6.04736 16.0156C5.95548 15.9531 5.86361 15.8906 5.76189 15.8156C5.66017 15.7406 5.55189 15.6563 5.43377 15.5625C5.31564 15.4688 5.25658 15.4156 5.15814 15.325L5.10236 15.275L5.03673 15.2125L4.92189 15.0844L4.84642 15C4.76439 14.9188 4.68892 14.8344 4.61017 14.7469V14.7313C3.66645 13.6604 3.0633 12.3553 2.87155 10.9693C2.6798 9.58328 2.90744 8.17394 3.52772 6.90688C4.14798 5.63981 5.13511 4.56769 6.37312 3.8165C7.6111 3.06531 9.04852 2.66627 10.5164 2.66627C11.9843 2.66627 13.4217 3.06531 14.6597 3.8165C15.8977 4.56769 16.8848 5.63981 17.5051 6.90688C18.1254 8.17394 18.353 9.58328 18.1613 10.9693C17.9696 12.3553 17.3664 13.6604 16.4227 14.7313L16.4063 14.725Z" fill="#18004C"/>
<path d="M15.4809 9.53135H10.9922V5.25635C10.9922 5.13203 10.9403 5.01282 10.848 4.92491C10.7557 4.83697 10.6305 4.7876 10.5 4.7876C10.3695 4.7876 10.2443 4.83697 10.152 4.92491C10.0597 5.01282 10.0078 5.13203 10.0078 5.25635V9.53135H5.51904C5.38851 9.53135 5.26334 9.58072 5.17103 9.66866C5.07873 9.75657 5.02686 9.87579 5.02686 10.0001C5.02686 10.1244 5.07873 10.2437 5.17103 10.3316C5.26334 10.4195 5.38851 10.4688 5.51904 10.4688H10.0078V14.7438C10.0078 14.8682 10.0597 14.9874 10.152 15.0753C10.2443 15.1632 10.3695 15.2126 10.5 15.2126C10.6305 15.2126 10.7557 15.1632 10.848 15.0753C10.9403 14.9874 10.9922 14.8682 10.9922 14.7438V10.4688H15.4809C15.6114 10.4688 15.7367 10.4195 15.829 10.3316C15.9213 10.2437 15.9731 10.1244 15.9731 10.0001C15.9731 9.87579 15.9213 9.75657 15.829 9.66866C15.7367 9.58072 15.6114 9.53135 15.4809 9.53135Z" fill="#18004C"/>
</svg>
