<svg width="24" height="24" viewBox="0 0 24 24" fill="none" xmlns="http://www.w3.org/2000/svg">
<path d="M12 22C10.0222 22 8.08879 21.4135 6.4443 20.3147C4.79981 19.2159 3.51809 17.6541 2.76121 15.8268C2.00433 13.9996 1.8063 11.9889 2.19215 10.0491C2.578 8.10929 3.53041 6.32746 4.92894 4.92894C6.32746 3.53041 8.10929 2.578 10.0491 2.19215C11.9889 1.8063 13.9996 2.00433 15.8268 2.76121C17.6541 3.51809 19.2159 4.79981 20.3147 6.4443C21.4135 8.08879 22 10.0222 22 12C21.9971 14.6513 20.9426 17.1931 19.0679 19.0679C17.1931 20.9426 14.6513 21.9971 12 22V22ZM5.688 7.1C4.59153 8.4977 3.99699 10.2235 4 12C4.00239 14.121 4.84601 16.1545 6.34578 17.6542C7.84556 19.154 9.879 19.9976 12 20C13.7767 20.0043 15.503 19.4097 16.9 18.312L5.688 7.1ZM12 4C10.2235 3.9966 8.49751 4.59118 7.1 5.688L18.312 16.9C19.4087 15.5024 20.0033 13.7765 20 12C19.9976 9.879 19.154 7.84556 17.6542 6.34578C16.1545 4.84601 14.121 4.00239 12 4V4Z" fill="#df2b2b" id="id_101"></path>
</svg>