<svg width="30" height="29" viewBox="0 0 30 29" fill="none" xmlns="http://www.w3.org/2000/svg">
<path d="M12 21.7388C14.5581 21.7388 16.8837 20.862 18.6977 19.3783L26.8372 27.2465C27.0233 27.4264 27.2558 27.5163 27.5116 27.5163C27.7674 27.5163 28 27.4264 28.186 27.2465C28.5581 26.8868 28.5581 26.3023 28.186 25.9426L20.0465 18.0744C21.5581 16.3209 22.4884 14.0504 22.4884 11.6C22.4884 6.00233 17.7907 1.46124 12 1.46124C6.23256 1.46124 1.51163 6.02481 1.51163 11.6C1.51163 17.1977 6.23256 21.7388 12 21.7388ZM12 3.30465C16.7442 3.30465 20.5814 7.03644 20.5814 11.6C20.5814 16.186 16.7442 19.8954 12 19.8954C7.25581 19.8954 3.4186 16.1636 3.4186 11.6C3.4186 7.03644 7.27907 3.30465 12 3.30465Z" fill="#18004C"/>
</svg>
