<svg width="25" height="25" viewBox="0 0 25 25" fill="none" xmlns="http://www.w3.org/2000/svg">
<path d="M23.1299 9.20942C22.8131 9.01861 22.566 8.73093 22.4253 8.38891C22.2845 8.04688 22.2575 7.66865 22.3483 7.3101C22.5134 6.66585 22.5077 5.98969 22.3318 5.34829C22.1559 4.7069 21.8159 4.12244 21.3452 3.65256C20.8745 3.18267 20.2895 2.8436 19.6478 2.66877C19.0061 2.49394 18.33 2.48941 17.686 2.65561C17.328 2.7461 16.9504 2.71895 16.6091 2.57819C16.2677 2.43742 15.9807 2.19052 15.7906 1.874C15.4518 1.30297 14.9703 0.829919 14.3934 0.501348C13.8165 0.172778 13.1639 0 12.5 0C11.8361 0 11.1835 0.172778 10.6066 0.501348C10.0297 0.829919 9.54816 1.30297 9.20942 1.874C9.01952 2.19175 8.73195 2.43955 8.38964 2.58042C8.04733 2.72129 7.66864 2.74766 7.3101 2.65561C6.66625 2.49079 5.99057 2.49653 5.34961 2.67227C4.70865 2.84801 4.12452 3.18768 3.65477 3.65784C3.18501 4.12799 2.84583 4.7124 2.67063 5.3535C2.49543 5.99461 2.49025 6.6703 2.65561 7.31401C2.74674 7.67199 2.7199 8.04982 2.57908 8.39131C2.43825 8.73281 2.19097 9.01973 1.874 9.20942C1.30297 9.54816 0.829919 10.0297 0.501348 10.6066C0.172778 11.1835 0 11.8361 0 12.5C0 13.1639 0.172778 13.8165 0.501348 14.3934C0.829919 14.9703 1.30297 15.4518 1.874 15.7906C2.19129 15.9809 2.43871 16.2686 2.57952 16.6107C2.72033 16.9529 2.74702 17.3314 2.65561 17.6899C2.49079 18.3337 2.49653 19.0094 2.67227 19.6504C2.84801 20.2913 3.18768 20.8755 3.65784 21.3452C4.12799 21.815 4.7124 22.1542 5.3535 22.3294C5.99461 22.5046 6.6703 22.5097 7.31401 22.3444C7.67199 22.2539 8.04959 22.281 8.39094 22.4218C8.7323 22.5626 9.01927 22.8095 9.20942 23.126C9.54816 23.697 10.0297 24.1701 10.6066 24.4987C11.1835 24.8272 11.8361 25 12.5 25C13.1639 25 13.8165 24.8272 14.3934 24.4987C14.9703 24.1701 15.4518 23.697 15.7906 23.126C15.9814 22.8092 16.2691 22.5621 16.6111 22.4214C16.9531 22.2806 17.3313 22.2536 17.6899 22.3444C18.3337 22.5092 19.0094 22.5035 19.6504 22.3277C20.2913 22.152 20.8755 21.8123 21.3452 21.3422C21.815 20.872 22.1542 20.2876 22.3294 19.6465C22.5046 19.0054 22.5097 18.3297 22.3444 17.686C22.2539 17.328 22.281 16.9504 22.4218 16.6091C22.5626 16.2677 22.8095 15.9807 23.126 15.7906C23.697 15.4518 24.1701 14.9703 24.4987 14.3934C24.8272 13.8165 25 13.1639 25 12.5C25 11.8361 24.8272 11.1835 24.4987 10.6066C24.1701 10.0297 23.697 9.54816 23.126 9.20942H23.1299ZM22.0513 13.9694C21.3439 14.397 20.7932 15.0411 20.4806 15.8063C20.1681 16.5714 20.1104 17.417 20.3161 18.2175C20.3894 18.5051 20.3865 18.8068 20.3077 19.093C20.2289 19.3791 20.0768 19.6398 19.8666 19.8492C19.6563 20.0587 19.3951 20.2098 19.1086 20.2875C18.8222 20.3653 18.5204 20.3671 18.2331 20.2927C17.4306 20.0913 16.5846 20.1536 15.8203 20.4703C15.056 20.787 14.4139 21.3414 13.989 22.0513C13.8386 22.3074 13.6239 22.5198 13.3662 22.6674C13.1084 22.8149 12.8165 22.8926 12.5195 22.8926C12.2225 22.8926 11.9307 22.8149 11.6729 22.6674C11.4152 22.5198 11.2005 22.3074 11.0501 22.0513C10.7088 21.4798 10.2252 21.0065 9.64641 20.6777C9.06762 20.349 8.41346 20.1759 7.74781 20.1754C7.42868 20.1752 7.11084 20.216 6.80206 20.2966C6.51446 20.3699 6.21271 20.367 5.92657 20.2882C5.64043 20.2093 5.37977 20.0573 5.1703 19.847C4.96082 19.6367 4.80976 19.3755 4.732 19.0891C4.65425 18.8027 4.65248 18.5009 4.72688 18.2136C4.92887 17.4111 4.86688 16.5649 4.55011 15.8004C4.23333 15.0359 3.67864 14.3939 2.96826 13.9694C2.71212 13.8191 2.49974 13.6044 2.35216 13.3466C2.20459 13.0889 2.12696 12.797 2.12696 12.5C2.12696 12.203 2.20459 11.9111 2.35216 11.6534C2.49974 11.3956 2.71212 11.1809 2.96826 11.0306C3.67915 10.6058 4.23394 9.96293 4.55009 9.19754C4.86625 8.43215 4.92688 7.58514 4.72297 6.78252C4.65057 6.49466 4.65427 6.19292 4.7337 5.90693C4.81313 5.62093 4.96556 5.3605 5.17604 5.15121C5.38651 4.94191 5.6478 4.79095 5.93424 4.71313C6.22068 4.63531 6.52243 4.63332 6.80987 4.70734C7.6118 4.90841 8.45715 4.84596 9.22081 4.52923C9.98448 4.2125 10.6259 3.65833 11.0501 2.94872C11.2005 2.69258 11.4152 2.4802 11.6729 2.33262C11.9307 2.18505 12.2225 2.10742 12.5195 2.10742C12.8165 2.10742 13.1084 2.18505 13.3662 2.33262C13.6239 2.4802 13.8386 2.69258 13.989 2.94872C14.4137 3.65961 15.0566 4.2144 15.822 4.53055C16.5874 4.84671 17.4344 4.90734 18.237 4.70343C18.5247 4.63049 18.8265 4.63362 19.1126 4.71252C19.3988 4.79141 19.6595 4.94335 19.8692 5.15343C20.0789 5.36352 20.2303 5.62451 20.3087 5.9108C20.387 6.1971 20.3896 6.49884 20.3161 6.78643C20.1125 7.58848 20.1733 8.43486 20.4894 9.19958C20.8056 9.9643 21.3602 10.6065 22.0708 11.0306C22.327 11.1809 22.5393 11.3956 22.6869 11.6534C22.8345 11.9111 22.9121 12.203 22.9121 12.5C22.9121 12.797 22.8345 13.0889 22.6869 13.3466C22.5393 13.6044 22.327 13.8191 22.0708 13.9694H22.0513Z" fill="#FFE3C2"/>
<path d="M12.5 7.2124C11.4542 7.2124 10.4319 7.52251 9.56237 8.10352C8.69283 8.68453 8.0151 9.51034 7.6149 10.4765C7.21469 11.4427 7.10998 12.5059 7.314 13.5316C7.51803 14.5573 8.02162 15.4994 8.7611 16.2389C9.50059 16.9784 10.4427 17.482 11.4684 17.686C12.4941 17.89 13.5573 17.7853 14.5235 17.3851C15.4897 16.9849 16.3155 16.3072 16.8965 15.4376C17.4775 14.5681 17.7876 13.5458 17.7876 12.5C17.7855 11.0983 17.2278 9.75456 16.2366 8.76339C15.2454 7.77222 13.9017 7.21447 12.5 7.2124ZM12.5 15.6733C11.8724 15.6733 11.2588 15.4872 10.737 15.1385C10.2151 14.7898 9.8084 14.2942 9.56822 13.7144C9.32803 13.1345 9.26519 12.4965 9.38763 11.8809C9.51008 11.2653 9.81231 10.6999 10.2561 10.2561C10.6999 9.81231 11.2653 9.51008 11.8809 9.38763C12.4965 9.26519 13.1345 9.32803 13.7144 9.56822C14.2942 9.8084 14.7898 10.2151 15.1385 10.737C15.4872 11.2588 15.6733 11.8724 15.6733 12.5C15.6723 13.3413 15.3376 14.1479 14.7427 14.7427C14.1479 15.3376 13.3413 15.6723 12.5 15.6733Z" fill="#FFE3C2"/>
</svg>
