<svg width="32" height="33" viewBox="0 0 32 33" fill="none" xmlns="http://www.w3.org/2000/svg">
<path d="M15.9998 17.9C12.5373 17.9 9.72034 14.995 9.72034 11.4243C9.72034 7.85361 12.5373 4.94865 15.9998 4.94865C19.4623 4.94865 22.2792 7.85361 22.2792 11.4243C22.2792 14.995 19.4623 17.9 15.9998 17.9Z" fill="#FFE3C2"/>
<path d="M27.3137 4.8327C24.2912 1.71639 20.2738 0 16 0C11.7262 0 7.70813 1.71639 4.68625 4.8327C1.66438 7.949 0 12.0927 0 16.5C0 20.9073 1.66438 25.051 4.68625 28.1673C7.70813 31.2836 11.7262 33 16 33C20.2738 33 24.2913 31.2836 27.3138 28.1673C30.3356 25.051 32 20.9073 32 16.5C32 12.0927 30.3356 7.949 27.3137 4.8327ZM4.32125 25.7406C2.41125 23.1793 1.27375 19.974 1.27375 16.5C1.27375 8.12625 7.88 1.31355 16 1.31355C24.12 1.31355 30.7256 8.12625 30.7256 16.5C30.7256 19.9753 29.5881 23.1819 27.6762 25.7439C27.2025 24.1094 25.9963 22.6501 24.1648 21.5344C21.9519 20.186 19.0386 19.4436 15.9623 19.4436C12.8898 19.4436 9.98919 20.1861 7.79481 21.5357C5.98375 22.6495 4.79063 24.1061 4.32125 25.7406Z" fill="#FFE3C2"/>
</svg>
